<svg xmlns="http://www.w3.org/2000/svg" viewBox="0 0 800 600">
  <!-- Background -->
  <rect width="800" height="600" fill="#1a1a2e"/>
  
  <!-- Dashboard Frame -->
  <rect x="50" y="50" width="700" height="500" rx="15" fill="#2d2d44" stroke="#d4af37" stroke-width="3"/>
  
  <!-- Title Bar -->
  <rect x="50" y="50" width="700" height="60" rx="15" fill="#d4af37"/>
  <text x="400" y="90" font-family="Arial, sans-serif" font-size="28" font-weight="bold" fill="#1a1a2e" text-anchor="middle">E-Commerce Sales Dashboard</text>
  
  <!-- Chart 1: Bar Chart -->
  <rect x="80" y="140" width="300" height="180" rx="10" fill="#16213e"/>
  <text x="230" y="165" font-family="Arial, sans-serif" font-size="16" fill="white" text-anchor="middle">Sales by State</text>
  <rect x="100" y="250" width="40" height="50" fill="#3b82f6"/>
  <rect x="150" y="220" width="40" height="80" fill="#3b82f6"/>
  <rect x="200" y="200" width="40" height="100" fill="#3b82f6"/>
  <rect x="250" y="240" width="40" height="60" fill="#3b82f6"/>
  <rect x="300" y="180" width="40" height="120" fill="#3b82f6"/>
  
  <!-- Chart 2: Pie Chart -->
  <rect x="420" y="140" width="300" height="180" rx="10" fill="#16213e"/>
  <text x="570" y="165" font-family="Arial, sans-serif" font-size="16" fill="white" text-anchor="middle">Category Distribution</text>
  <circle cx="570" cy="240" r="60" fill="none" stroke="#10b981" stroke-width="40" stroke-dasharray="188 377"/>
  <circle cx="570" cy="240" r="60" fill="none" stroke="#f59e0b" stroke-width="40" stroke-dasharray="113 377" transform="rotate(120 570 240)"/>
  <circle cx="570" cy="240" r="60" fill="none" stroke="#ef4444" stroke-width="40" stroke-dasharray="75 377" transform="rotate(240 570 240)"/>
  
  <!-- KPI Cards -->
  <rect x="80" y="360" width="150" height="160" rx="10" fill="#10b981" opacity="0.9"/>
  <text x="155" y="400" font-family="Arial, sans-serif" font-size="36" font-weight="bold" fill="white" text-anchor="middle">438K</text>
  <text x="155" y="430" font-family="Arial, sans-serif" font-size="16" fill="white" text-anchor="middle">Total Sales</text>
  
  <rect x="250" y="360" width="150" height="160" rx="10" fill="#3b82f6" opacity="0.9"/>
  <text x="325" y="400" font-family="Arial, sans-serif" font-size="36" font-weight="bold" fill="white" text-anchor="middle">6K</text>
  <text x="325" y="430" font-family="Arial, sans-serif" font-size="16" fill="white" text-anchor="middle">Quantity</text>
  
  <rect x="420" y="360" width="150" height="160" rx="10" fill="#f59e0b" opacity="0.9"/>
  <text x="495" y="400" font-family="Arial, sans-serif" font-size="36" font-weight="bold" fill="white" text-anchor="middle">37K</text>
  <text x="495" y="430" font-family="Arial, sans-serif" font-size="16" fill="white" text-anchor="middle">Profit</text>
  
  <rect x="590" y="360" width="130" height="160" rx="10" fill="#8b5cf6" opacity="0.9"/>
  <text x="655" y="400" font-family="Arial, sans-serif" font-size="32" font-weight="bold" fill="white" text-anchor="middle">12</text>
  <text x="655" y="430" font-family="Arial, sans-serif" font-size="14" fill="white" text-anchor="middle">Avg AOV</text>
  
  <!-- Power BI Logo -->
  <rect x="680" y="70" width="50" height="50" fill="#f2c811"/>
  <text x="705" y="102" font-family="Arial, sans-serif" font-size="20" font-weight="bold" fill="#1a1a2e" text-anchor="middle">BI</text>
</svg>
